<svg id="Layer_1" data-name="Layer 1" xmlns="http://www.w3.org/2000/svg" xmlns:xlink="http://www.w3.org/1999/xlink" viewBox="0 0 681.59 579.8" width="406" height="306" class="illustration styles_illustrationTablet__1DWOa"><defs><linearGradient id="linear-gradient" x1="410.24" y1="317.15" x2="418.14" y2="349.6" gradientUnits="userSpaceOnUse"><stop offset="0" stop-color="#010101" stop-opacity="0"></stop><stop offset="0.95" stop-color="#010101"></stop></linearGradient><linearGradient id="linear-gradient-2" x1="370.23" y1="369.69" x2="319.67" y2="419" xlink:href="#linear-gradient"></linearGradient><linearGradient id="linear-gradient-3" x1="227.15" y1="158.23" x2="648.28" y2="209" xlink:href="#linear-gradient"></linearGradient><linearGradient id="linear-gradient-4" x1="489.5" y1="166.32" x2="185.71" y2="185.46" xlink:href="#linear-gradient"></linearGradient><linearGradient id="linear-gradient-5" x1="355.93" y1="100.08" x2="271.25" y2="819.84" gradientUnits="userSpaceOnUse"><stop offset="0.12" stop-color="#010101" stop-opacity="0"></stop><stop offset="0.95" stop-color="#010101"></stop></linearGradient><linearGradient id="linear-gradient-6" x1="358.85" y1="351.86" x2="353.86" y2="797.57" xlink:href="#linear-gradient"></linearGradient><linearGradient id="linear-gradient-7" x1="364.48" y1="351.97" x2="359.49" y2="797.09" xlink:href="#linear-gradient"></linearGradient><linearGradient id="linear-gradient-8" x1="372.61" y1="337.17" x2="396.13" y2="337.17" gradientUnits="userSpaceOnUse"><stop offset="0" stop-color="#e5c6d6"></stop><stop offset="0.42" stop-color="#ead4d0"></stop><stop offset="1" stop-color="#f0e9cb"></stop></linearGradient><linearGradient id="linear-gradient-9" x1="355.51" y1="379.16" x2="373.79" y2="379.16" xlink:href="#linear-gradient-8"></linearGradient><linearGradient id="linear-gradient-10" x1="2204.71" y1="333.28" x2="2187.32" y2="338.56" gradientTransform="translate(-1242.18 -441.99) rotate(14.48) scale(0.82 1)" xlink:href="#linear-gradient"></linearGradient><linearGradient id="linear-gradient-11" x1="2196.27" y1="335.13" x2="2206.32" y2="333.38" gradientTransform="matrix(0.8, 0.21, -0.25, 0.97, -1242.15, -441.87)" xlink:href="#linear-gradient"></linearGradient><linearGradient id="linear-gradient-12" x1="2200.79" y1="334.41" x2="2193.73" y2="336.55" gradientTransform="translate(-1383.19) scale(0.82 1)" xlink:href="#linear-gradient"></linearGradient><linearGradient id="linear-gradient-13" x1="2169.81" y1="338.66" x2="2181.81" y2="354.89" gradientTransform="translate(-1383.19) scale(0.82 1)" xlink:href="#linear-gradient"></linearGradient><linearGradient id="linear-gradient-14" x1="2193.48" y1="335.16" x2="2218.93" y2="335.93" gradientTransform="translate(-1383.19) scale(0.82 1)" xlink:href="#linear-gradient"></linearGradient><linearGradient id="linear-gradient-15" x1="401.1" y1="343.11" x2="408.9" y2="343.11" xlink:href="#linear-gradient"></linearGradient><linearGradient id="linear-gradient-16" x1="404.73" y1="353.35" x2="415.17" y2="353.35" xlink:href="#linear-gradient-8"></linearGradient><linearGradient id="linear-gradient-17" x1="574.32" y1="287.79" x2="535.62" y2="363.95" gradientUnits="userSpaceOnUse"><stop offset="0" stop-color="#fff" stop-opacity="0"></stop><stop offset="0.95" stop-color="#fff"></stop></linearGradient><linearGradient id="linear-gradient-18" x1="-728.23" y1="331.64" x2="-758.06" y2="390.36" gradientTransform="matrix(-0.94, 0, 0, 1, -597.51, 0)" xlink:href="#linear-gradient-17"></linearGradient></defs><title>marketing 3</title><path d="M352.15,9.45c-59.39,4.06-116.52,34.2-153.41,80.92C165.4,132.61,149,186,117.58,229.63,86,273.52,39.71,307,16.74,356c-34.51,73.56.43,171.81,73.64,207.06,40.64,19.57,87.39,20.65,132.5,21.35L498,588.66c32.45.5,65.65.89,96.41-9.49,60.72-20.49,103.24-89.42,87.14-151.45-12.71-49-56.34-87-62.47-137.19-3.46-28.36,5.71-56.72,6.14-85.29C626.93,88.58,453.17,2.54,352.15,9.45Z" transform="translate(-3.36 -9.06)" fill="#355E3B" opacity="0.24" style="isolation: isolate;"></path><path d="M401,385.31H318.79l-37.94-95.07,152.38-3.91Zm-79.18-4.43h76l29.32-90-139.74,3.59Z" transform="translate(-3.36 -9.06)" fill="#355E3B"></path><polygon points="417.69 314.79 411.92 317.86 406.51 334.82 411.61 331.38 417.69 314.79" fill="url(#linear-gradient)"></polygon><path d="M376.87,340.18c-3.73-1-7.72-1.77-11.45-.8a21.36,21.36,0,0,0-7.71,4.31,68.32,68.32,0,0,0-22.53,32.37c-.54,1.69-.95,3.73.25,5.09.9,1,2.4,1.29,3.77,1.48q16.51,2.37,33.12,4a10.75,10.75,0,0,0,4-.12,8.45,8.45,0,0,0,3.4-2.25c5.31-5.23,7.6-12.56,9.7-19.6a29.57,29.57,0,0,0,1.73-9.12C391,346.88,384.9,342.39,376.87,340.18Z" transform="translate(-3.36 -9.06)" fill="#355E3B"></path><path d="M360.24,359.4l3,7.16a13.07,13.07,0,0,0,2.73,4.64c1.79,1.72,4.36,2.28,6.63,3.3a16.89,16.89,0,0,1,7.19,6.12,73.75,73.75,0,0,1-13-.53,13.23,13.23,0,0,1-3.89-1c-2.41-1.13-1.73-4.08-4.05-5.39-1.66-.94-5.94-.3-7.67-1C352.14,367.64,356.29,362.59,360.24,359.4Z" transform="translate(-3.36 -9.06)" fill="url(#linear-gradient-2)"></path><path d="M244.24,58.57a115.69,115.69,0,0,0-25.47,153.89c5.34,8.23,11.72,15.77,16.65,24.24,9.47,16.28,14,36.37,28.71,48.06,11.48,9.1,26.88,11.14,41.48,12.42a17.12,17.12,0,0,0,7.17-.38c5.15-1.77,7.46-7.76,8.19-13.15,2-14.86-2.86-29.65-6.75-44.13A345.32,345.32,0,0,1,307.42,92c2.55-14.83,10.49-41.2-8.63-48C280.55,37.54,258.34,47.47,244.24,58.57Z" transform="translate(-3.36 -9.06)" fill="#355E3B"></path><path d="M255.06,56.91A115.69,115.69,0,0,0,229.59,210.8c5.34,8.22,11.72,15.76,16.65,24.24,9.47,16.27,14,36.36,28.71,48.06,11.48,9.1,26.88,11.14,41.48,12.42a17.29,17.29,0,0,0,7.17-.39c5.15-1.77,7.45-7.75,8.19-13.15,2-14.85-2.86-29.65-6.75-44.13a345.32,345.32,0,0,1-6.8-147.57c2.55-14.82,10.49-41.19-8.63-47.95C291.37,35.88,269.16,45.8,255.06,56.91Z" transform="translate(-3.36 -9.06)" fill="url(#linear-gradient-3)"></path><path d="M466.09,56.7a115.69,115.69,0,0,1,25.47,153.89c-5.34,8.23-11.72,15.76-16.65,24.24-9.47,16.27-14,36.37-28.71,48.06-11.48,9.1-26.89,11.14-41.48,12.42a17.51,17.51,0,0,1-7.18-.38c-5.14-1.78-7.45-7.76-8.18-13.15-2-14.86,2.86-29.66,6.75-44.14A345.31,345.31,0,0,0,402.9,90.07c-2.55-14.82-10.48-41.19,8.64-47.95C429.77,35.67,452,45.6,466.09,56.7Z" transform="translate(-3.36 -9.06)" fill="#355E3B"></path><path d="M460.47,60.45a115.69,115.69,0,0,1,25.47,153.89c-5.34,8.22-11.72,15.76-16.65,24.24-9.47,16.27-14,36.36-28.71,48.06-11.48,9.1-26.88,11.14-41.48,12.42a17.29,17.29,0,0,1-7.17-.39c-5.15-1.77-7.45-7.75-8.19-13.15-2-14.85,2.86-29.65,6.75-44.13a345.32,345.32,0,0,0,6.8-147.57c-2.55-14.83-10.49-41.2,8.63-48C424.16,39.42,446.37,49.34,460.47,60.45Z" transform="translate(-3.36 -9.06)" fill="url(#linear-gradient-4)"></path><path d="M242.91,102.81c4.3-17.91,12.22-35.35,25.25-48.37,18.92-18.92,46.38-26.54,72.95-29.74,25.68-3.09,52.82-2.51,75.93,9.11,29.33,14.74,48.28,46.28,51.94,78.9s-6.68,65.81-24.42,93.42c-12,18.7-27.68,35.89-33.14,57.44-3.14,12.36-3.13,26.48-11.77,35.85-4.95,5.38-12,8.24-18.94,10.54-23.35,7.75-54.43,10.9-74.3-7.18-12.65-11.5-13.74-29.28-19.89-44.35-10.21-25-29.3-44.85-38.6-70.42A149.39,149.39,0,0,1,242.91,102.81Z" transform="translate(-3.36 -9.06)" fill="#355E3B"></path><path d="M256.71,102.81c3.68-17.91,10.48-35.35,21.66-48.37C294.62,35.52,318.19,27.9,341,24.7c22.05-3.09,45.34-2.51,65.18,9.11,25.17,14.74,41.43,46.28,44.58,78.9s-5.74,65.81-21,93.42C419.47,224.83,406,242,401.34,263.57c-2.69,12.36-2.69,26.48-10.1,35.85C387,304.8,380.93,307.66,375,310c-20,7.75-46.71,10.9-63.78-7.18-10.85-11.5-11.79-29.28-17.07-44.35C285.38,233.45,269,213.58,261,188A172.66,172.66,0,0,1,256.71,102.81Z" transform="translate(-3.36 -9.06)" fill="url(#linear-gradient-5)"></path><rect x="297.79" y="372.58" width="113.61" height="98.63" rx="12.35" fill="#355E3B"></rect><path d="M414.74,398v70.15a12.08,12.08,0,0,1-12.06,12.1H313.24a12.08,12.08,0,0,1-12.1-12.1V398A12.08,12.08,0,0,1,313.24,386h89.44A12.07,12.07,0,0,1,414.74,398Z" transform="translate(-3.36 -9.06)" fill="url(#linear-gradient-6)"></path><path d="M414.74,398v70.15a12.08,12.08,0,0,1-12.06,12.1H324.46a12.08,12.08,0,0,1-12.06-12.1V398A12.07,12.07,0,0,1,324.46,386h78.22A12.07,12.07,0,0,1,414.74,398Z" transform="translate(-3.36 -9.06)" fill="url(#linear-gradient-7)"></path><path d="M389.08,367.32a68,68,0,0,1,10.78,15.27,2.17,2.17,0,0,1,.35,1.55,2.2,2.2,0,0,1-1.13,1.16q-11,6.74-22.14,13.14a6,6,0,0,1-3.5,1.12,5.69,5.69,0,0,1-2.12-.83,56.69,56.69,0,0,1-13.49-10.58,2.25,2.25,0,0,1-.83-1.69,2.31,2.31,0,0,1,1.1-1.39,181.11,181.11,0,0,1,15-10.52C377.38,372,383.87,367.32,389.08,367.32Z" transform="translate(-3.36 -9.06)" fill="#fff"></path><path d="M380.65,315.8c-5.56,1.95-10.19,6.46-16,7.19-1.06.14-2.29.22-2.91,1.09s-.22,2.28.49,3.19a15.85,15.85,0,0,1,2.19,2.68c.35.71.45,1.53.85,2.22a5.85,5.85,0,0,0,2.53,2c4.91,2.52,10.13,5.11,15.64,4.77a15.13,15.13,0,0,0,12-7.42c1.94-3.42,3-10.39.46-13.88C392.91,313.56,384.71,314.38,380.65,315.8Z" transform="translate(-3.36 -9.06)" fill="#606161"></path><path d="M392.6,340.91a8.06,8.06,0,0,1-2.85,4.15,6,6,0,0,1-3.64.72,22.35,22.35,0,0,1-3.68-.79,2.71,2.71,0,0,0-1.71-.06,2.42,2.42,0,0,0-1.06,1,9.79,9.79,0,0,0-1.11,2.36,4.18,4.18,0,0,1-.73,1.65,3.5,3.5,0,0,1-2.63.78,3.07,3.07,0,0,1-1.48-.24,2.86,2.86,0,0,1-1.08-2.57c-.06-1.42,0-2.85.08-4.27a21.47,21.47,0,0,1,1.27-7.53,19.68,19.68,0,0,1,2.12-3.56c2.26-3.19,4.85-6.42,8.5-7.84a22,22,0,0,1,6.87-1.09,8.08,8.08,0,0,1,2.55.13c3.37.92,1.8,5.17,1.33,7.61A55.25,55.25,0,0,1,392.6,340.91Z" transform="translate(-3.36 -9.06)" fill="url(#linear-gradient-8)"></path><path d="M379,333.25c0,.8-.13,1.84-.9,2.05a4.26,4.26,0,0,1-.57-1.35c-.18-.45-.53-.92-1-.94a1.44,1.44,0,0,0-.74.26,2.65,2.65,0,0,0-1.32,1.59c-.2,1,.55,2,.28,3-.1.36-.44.72-.8.61a1,1,0,0,1-.47-.47,28.72,28.72,0,0,1-1.87-3.82,5.19,5.19,0,0,1-.43-1.49,4.22,4.22,0,0,1,.29-1.75,10.43,10.43,0,0,1,3.41-4.48,30.1,30.1,0,0,1,4.85-3c1.1-.6,3.55-2,4.81-1s-.76,2.21-1.43,2.75A11.09,11.09,0,0,0,379,333.25Z" transform="translate(-3.36 -9.06)" fill="#606161"></path><path d="M394.53,353.66l10,14a3.33,3.33,0,0,0,2.15-2.83,12.46,12.46,0,0,0-.3-3.74,29.7,29.7,0,0,1-.36-5.65,6,6,0,0,1,1.12-3.87c1.63-1.9,4.93-1.33,6.63.51s2.2,4.45,2.55,6.93a74,74,0,0,1,.83,13.87c-.11,2.28-.44,4.73-2,6.37a8.27,8.27,0,0,1-4.4,2.07c-8.7,1.75-17.94-2.82-23.06-10.07a32.36,32.36,0,0,1-5.53-21.36C383.24,339.81,391.71,349.71,394.53,353.66Z" transform="translate(-3.36 -9.06)" fill="#355E3B"></path><path d="M342.07,371.4c-.56,1.88-1,4.08.17,5.67s3.31,1.84,5.23,2l5.43.42c3.25.25,7,.3,9.15-2.16a10.63,10.63,0,0,0,1.69-3.34,3.51,3.51,0,0,0,.27-2.45c-.3-.72-1-1.15-1.58-1.68-2.24-2.14-1.79-5.92-.24-8.6s3.95-4.79,5.47-7.48a13.63,13.63,0,0,0,1.76-6,3.42,3.42,0,0,0-.22-1.65,3.29,3.29,0,0,0-1.56-1.38C353.86,337.77,344.68,362.64,342.07,371.4Z" transform="translate(-3.36 -9.06)" fill="none"></path><path d="M369.61,374.71a5,5,0,0,1,2,.4c1.38.69,1.84,2.4,2.06,3.93a5.57,5.57,0,0,1-.07,2.57,4,4,0,0,1-2,2.13c-2,1.06-4.38.87-6.61.61-1.43-.16-3.16-.6-3.51-2-.18-.75,0-1.79-.7-2.11a1.4,1.4,0,0,0-.61-.1,13.15,13.15,0,0,1-2.51-.06,2.68,2.68,0,0,1-2-1.37,3.41,3.41,0,0,1,.17-2.52c.87-2.38,2.3-2.73,4.5-2.23C363.31,374.63,366.59,374.5,369.61,374.71Z" transform="translate(-3.36 -9.06)" fill="url(#linear-gradient-9)"></path><path d="M397.58,339a3.86,3.86,0,0,1,2.48-1.91c4.9-1.17,20.24-5.41,21.13-12.72a2.45,2.45,0,0,1,2.69-1.89c2.4,0,6.22,22.6,5.58,23.09s-2.83-.56-4-1.61a8.81,8.81,0,0,0-8.62-1.9c-1.94.6-5.47,1.42-8.77,2.13-2.37.51-4.62,1-6.07,1.26a3.42,3.42,0,0,1-3.3-1.15,5.82,5.82,0,0,1-1.44-4.76S397.41,339.33,397.58,339Z" transform="translate(-3.36 -9.06)" fill="#355E3B"></path><ellipse cx="427.03" cy="334.04" rx="4.02" ry="11.84" transform="translate(-73.31 108.32) rotate(-14.48)" fill="#355E3B"></ellipse><ellipse cx="427.03" cy="334.04" rx="4.02" ry="11.84" transform="translate(-73.31 108.32) rotate(-14.48)" fill="url(#linear-gradient-10)"></ellipse><ellipse cx="426.59" cy="334.18" rx="1.21" ry="3.56" transform="matrix(0.97, -0.25, 0.25, 0.97, -73.36, 108.21)" fill="url(#linear-gradient-11)"></ellipse><path d="M425.7,330.73l-3.06.4s1.17,7.37,2.47,8l2.09-1.54Z" transform="translate(-3.36 -9.06)" fill="url(#linear-gradient-12)"></path><path d="M404.51,340.37s.83,3.74,3.6,3.84l-6.85,1.55s-2.45-.14-2.93-1.13-2.92-4.4.52-7.06l5.52-1.69A8.53,8.53,0,0,0,404.51,340.37Z" transform="translate(-3.36 -9.06)" fill="url(#linear-gradient-13)"></path><path d="M420.77,327a28.5,28.5,0,0,0,4.33,16.57,10.07,10.07,0,0,0-6.78-1.83s-2-7.39-1.13-9.45A30.48,30.48,0,0,1,420.77,327Z" transform="translate(-3.36 -9.06)" fill="url(#linear-gradient-14)"></path><polygon points="401.1 335.86 403.05 346.99 402.97 351.51 408.9 350.21 408.18 345.74 405.68 334.71 401.1 335.86" fill="#355E3B"></polygon><polygon points="401.1 335.86 403.05 346.99 402.97 351.51 408.9 350.21 408.18 345.74 405.68 334.71 401.1 335.86" fill="url(#linear-gradient-15)"></polygon><path d="M406.83,356.46c-1.58-2.29-1.84-5.21-2.05-8a4.88,4.88,0,0,1,.63-3.52,4.56,4.56,0,0,1,2.25-1.25,6.28,6.28,0,0,1,3.77-.31,4.62,4.62,0,0,1,2.72,2.92,14,14,0,0,1,.59,4.07l.18,4.31.24,5.62a3.63,3.63,0,0,1-.35,2.14C412.27,366.37,407.89,358,406.83,356.46Z" transform="translate(-3.36 -9.06)" fill="url(#linear-gradient-16)"></path><path d="M501.69,378a237.37,237.37,0,0,1,8.73,28.94c-3.42.43-6.88.08-10.32.27-11.18.62-21.16,6.87-30.57,12.93,5.66-3.65-13.39-21.8-3.59-28.49,4.32-3,12.57-3.61,17.6-5.49A156.23,156.23,0,0,0,501.69,378Z" transform="translate(-3.36 -9.06)" fill="#fff"></path><path d="M200.45,429a16.72,16.72,0,0,0-4.72-1.38,18.34,18.34,0,0,0-6,.87C177,431.66,164,432.94,151,434.22l-40.57,4q25.28,18.92,49.69,38.95A129.56,129.56,0,0,1,224,455.91c3.18-.18,6.45-.27,9.36-1.55,11.93-5.24-2.1-10.85-7.5-13.66Q213.44,434.24,200.45,429Z" transform="translate(-3.36 -9.06)" fill="#fff"></path><path d="M513.7,492.72c11.76-5.37,24.51-8.16,36.78-12.28-9.45,4.54-19,9.18-26.74,16.29-10.9,10.07-17.54,24.66-30.17,32.46a36.9,36.9,0,0,1-32.22,2.95c.33.12,10.52-15,11.57-16.36,5.18-6.59,5.38-5.66,12.11-7.11,6.22-1.33,6-.46,11.8-5.12A78.61,78.61,0,0,1,513.7,492.72Z" transform="translate(-3.36 -9.06)" fill="#fff"></path><path d="M207.46,361.75l16.12,16.65a6.16,6.16,0,0,0,2,1.58,5.87,5.87,0,0,0,2,.33c10.25.59,20.49,1.6,30.66,3-2.8-5.8-13.87-11.59-19-15.28-4-2.9-8.56-3.6-13.59-4.47C222.54,363,209.26,363.61,207.46,361.75Z" transform="translate(-3.36 -9.06)" fill="#fff"></path><path d="M456.27,284.37c-10,13.67-8.41,34.62,3.63,46.57,16,15.94,42.16,13.32,64.46,9.58,1.87,18.53,20.25,31.89,38.7,34.43s36.93-3.18,54.68-8.82a18.41,18.41,0,0,0,34.39,5.19c-11.54-14.38-23.17-28.9-31.36-45.41s-12.75-35.43-9.28-53.53c1.25-6.54,2.66-15.13-3.23-18.25a12.83,12.83,0,0,0-5.93-1.1,78.07,78.07,0,0,0-43.43,12.69c-3.86,2.53-7.79,5.52-12.39,5.78-3.7.21-7.22-1.38-10.81-2.26-13.22-3.25-26.68,3.44-40,2.14C480.58,269.92,466.18,270.88,456.27,284.37Z" transform="translate(-3.36 -9.06)" fill="url(#linear-gradient-17)"></path><path d="M169,329c7.25,10.54,6.07,26.69-2.61,35.91-11.58,12.29-30.42,10.27-46.51,7.38-1.34,14.29-14.6,24.59-27.91,26.55s-26.64-2.45-39.45-6.8c-1,5.74-5.66,10.55-11.07,11.42A13.43,13.43,0,0,1,27.74,396c8.33-11.08,16.72-22.28,22.63-35s9.19-27.31,6.69-41.27c-.9-5-1.91-11.66,2.33-14.07a8.86,8.86,0,0,1,4.28-.85A53.72,53.72,0,0,1,95,314.63c2.79,1.95,5.62,4.25,8.94,4.45,2.66.16,5.2-1.06,7.8-1.74,9.53-2.51,19.24,2.65,28.88,1.65C151.5,317.86,161.88,318.6,169,329Z" transform="translate(-3.36 -9.06)" fill="url(#linear-gradient-18)"></path><path d="M612.32,437.1A240.3,240.3,0,0,0,580,435.28q1.66,9.29,3.77,18.48c9.72-2.7,20.14-.38,29.6,3.12s18.54,8.18,28.38,10.41a2.72,2.72,0,0,0,2.31-.19c1.09-.88.28-2.62-.57-3.74C634.18,451.19,628.59,439,612.32,437.1Z" transform="translate(-3.36 -9.06)" fill="#fff"></path><rect x="298.42" y="392.76" width="111.73" height="16.23" fill="#355E3B" opacity="0.24" style="isolation: isolate;"></rect><rect x="298.42" y="415.24" width="111.73" height="16.23" fill="#355E3B" opacity="0.24" style="isolation: isolate;"></rect><rect x="298.42" y="437.71" width="111.73" height="16.23" fill="#355E3B" opacity="0.24" style="isolation: isolate;"></rect></svg>